<svg xmlns="http://www.w3.org/2000/svg" viewBox="0 0 80 90"><ellipse cx="42" cy="81" rx="30" ry="4" fill="#e7e8d9"/><ellipse cx="30" cy="60" rx="22" ry="19" fill="#d8c9ad"/><circle cx="11" cy="57" r="8" fill="#f0e9d8"/><path d="M41 48C25 25 24 5 31 6c8-1 16 27 17 37C40 9 53 2 56 11c3 10-3 29-5 35" fill="#e8ddc7" stroke="#b5a588" stroke-width="1.3"/><path d="m33 15 10 25m9-24-3 24" stroke="#cdaaa0" stroke-width="4" stroke-linecap="round"/><ellipse cx="52" cy="51" rx="17" ry="15" fill="#e8ddc7"/><circle cx="58" cy="47" r="2.5" fill="#364337"/><path d="m66 51 4 2-4 2" fill="#b18879"/><ellipse cx="43" cy="76" rx="17" ry="5" fill="#e8ddc7"/><path d="M62 58h7m-9 2 7 3" stroke="#b7a990" stroke-linecap="round"/></svg>
